# This file uses centimeters as units for non-parametric coordinates.

mtllib textured_sphere.mtl
g default
v 0.159567 5.740332 -0.070489
v 0.183765 5.740332 0.082296
v -0.310658 5.779244 0.082296
vt 0.950000 0.950000
vt 1.000000 0.950000
vt 0.975000 1.000000
vn 0.078453 0.996840 -0.012424
vn 0.078453 0.996840 -0.012424
vn 0.078453 0.996840 -0.012424
s off
g pSphere1
usemtl initialShadingGroup
f 2/1/1 1/2/2 3/3/3
g default
v 2.548718 0.328753 0.856615
v 2.314791 0.328753 0.592565
v 1.984949 0.328753 0.467473
v 1.634754 0.328753 0.509994
v 1.344433 0.328753 0.710388
v 1.180494 0.328753 1.022747
v 1.180494 0.328753 1.375513
v 1.344433 0.328753 1.687873
v 1.634754 0.328753 1.888267
v 1.984948 0.328753 1.930788
v 2.314791 0.328753 1.805695
v 2.548718 0.328753 1.541646
v 2.633141 0.328753 1.199130
v 3.163400 0.592027 0.534005
v 2.709140 0.592027 0.021252
v 2.068625 0.592027 -0.221664
v 1.388588 0.592027 -0.139093
v 0.824819 0.592027 0.250049
v 0.506469 0.592027 0.856614
v 0.506468 0.592027 1.541646
v 0.824818 0.592027 2.148211
v 1.388588 0.592027 2.537353
v 2.068625 0.592027 2.619925
v 2.709140 0.592027 2.377009
v 3.163400 0.592027 1.864256
v 3.327338 0.592027 1.199130
v 3.704432 1.013784 0.250050
v 3.056240 1.013784 -0.481608
v 2.142276 1.013784 -0.828229
v 1.171918 1.013784 -0.710407
v 0.367464 1.013784 -0.155132
v -0.086796 1.013784 0.710388
v -0.086797 1.013784 1.687872
v 0.367463 1.013784 2.553392
v 1.171917 1.013784 3.108667
v 2.142275 1.013784 3.226490
v 3.056239 1.013784 2.879869
v 3.704431 1.013784 2.148211
v 3.938359 1.013784 1.199130
v 4.140370 1.569512 0.021252
v 3.335916 1.569512 -0.886789
v 2.201620 1.569512 -1.316971
v 0.997335 1.569512 -1.170745
v -0.001052 1.569512 -0.481608
v -0.564822 1.569512 0.592565
v -0.564822 1.569512 1.805695
v -0.001053 1.569512 2.879868
v 0.997334 1.569512 3.569005
v 2.201619 1.569512 3.715232
v 3.335915 1.569512 3.285050
v 4.140369 1.569512 2.377009
v 4.430690 1.569512 1.199130
v 4.445880 2.226914 -0.139092
v 3.531916 2.226914 -1.170744
v 2.243209 2.226914 -1.659487
v 0.874985 2.226914 -1.493355
v -0.259312 2.226914 -0.710407
v -0.899828 2.226914 0.509993
v -0.899828 2.226914 1.888266
v -0.259312 2.226914 3.108667
v 0.874984 2.226914 3.891615
v 2.243208 2.226914 4.057748
v 3.531915 2.226914 3.569006
v 4.445880 2.226914 2.537353
v 4.775722 2.226914 1.199130
v 4.603207 2.947785 -0.221663
v 3.632849 2.947785 -1.316971
v 2.264626 2.947785 -1.835870
v 0.811979 2.947785 -1.659487
v -0.392306 2.947785 -0.828229
v -1.072343 2.947785 0.467472
v -1.072343 2.947785 1.930788
v -0.392307 2.947785 3.226489
v 0.811978 2.947785 4.057747
v 2.264625 2.947785 4.234131
v 3.632848 2.947785 3.715232
v 4.603206 2.947785 2.619925
v 4.953401 2.947785 1.199130
v 4.603207 3.690229 -0.221663
v 3.632849 3.690229 -1.316971
v 2.264626 3.690229 -1.835870
v 0.811979 3.690229 -1.659487
v -0.392306 3.690229 -0.828229
v -1.072343 3.690229 0.467472
v -1.072343 3.690229 1.930788
v -0.392307 3.690229 3.226489
v 0.811978 3.690229 4.057747
v 2.264625 3.690229 4.234131
v 3.632848 3.690229 3.715232
v 4.603206 3.690229 2.619925
v 4.953401 3.690229 1.199130
v 4.445880 4.411100 -0.139092
v 3.531916 4.411100 -1.170744
v 2.243209 4.411100 -1.659487
v 0.874985 4.411100 -1.493355
v -0.259312 4.411100 -0.710407
v -0.899828 4.411100 0.509993
v -0.899828 4.411100 1.888266
v -0.259312 4.411100 3.108667
v 0.874984 4.411100 3.891615
v 2.243208 4.411100 4.057748
v 3.531915 4.411100 3.569006
v 4.445880 4.411100 2.537353
v 4.775722 4.411100 1.199130
v 4.140370 5.068502 0.021252
v 3.335916 5.068502 -0.886789
v 2.201620 5.068502 -1.316971
v 0.997335 5.068502 -1.170745
v -0.001052 5.068502 -0.481608
v -0.564822 5.068502 0.592565
v -0.564822 5.068502 1.805695
v -0.001053 5.068502 2.879868
v 0.997334 5.068502 3.569005
v 2.201619 5.068502 3.715232
v 3.335915 5.068502 3.285050
v 4.140369 5.068502 2.377009
v 4.430690 5.068502 1.199130
v 3.704432 5.624230 0.250050
v 3.056240 5.624230 -0.481608
v 2.142276 5.624230 -0.828229
v 1.171918 5.624230 -0.710407
v 0.367464 5.624230 -0.155132
v -0.086796 5.624230 0.710388
v -0.086797 5.624230 1.687872
v 0.367463 5.624230 2.553392
v 1.171917 5.624230 3.108667
v 2.142275 5.624230 3.226490
v 3.056239 5.624230 2.879869
v 3.704431 5.624230 2.148211
v 3.938359 5.624230 1.199130
v 3.163400 6.045987 0.534005
v 2.709140 6.045987 0.021252
v 2.068625 6.045987 -0.221664
v 1.388588 6.045987 -0.139093
v 0.824819 6.045987 0.250049
v 0.506469 6.045987 0.856614
v 0.506468 6.045987 1.541646
v 0.824818 6.045987 2.148211
v 1.388588 6.045987 2.537353
v 2.068625 6.045987 2.619925
v 2.709140 6.045987 2.377009
v 3.163400 6.045987 1.864256
v 3.327338 6.045987 1.199130
v 2.548718 6.309261 0.856615
v 2.314791 6.309261 0.592565
v 1.984949 6.309261 0.467473
v 1.634754 6.309261 0.509994
v 1.344433 6.309261 0.710388
v 1.180494 6.309261 1.022747
v 1.180494 6.309261 1.375513
v 1.344433 6.309261 1.687873
v 1.634754 6.309261 1.888267
v 1.984948 6.309261 1.930788
v 2.314791 6.309261 1.805695
v 2.548718 6.309261 1.541646
v 2.633141 6.309261 1.199130
v 1.896109 0.239261 1.199130
v 1.896109 6.398753 1.199130
vt 0.230605 0.161712
vt 0.213415 0.142309
vt 0.242393 0.100328
vt 0.275773 0.138006
vt 0.182650 0.186881
vt 0.189178 0.133117
vt 0.195326 0.082478
vt 0.267899 0.063376
vt 0.315529 0.117140
vt 0.236808 0.186881
vt 0.287820 0.186881
vt 0.163445 0.136242
vt 0.145356 0.088545
vt 0.200738 0.037906
vt 0.288450 0.033603
vt 0.347563 0.100328
vt 0.332719 0.186881
vt 0.230605 0.212050
vt 0.275773 0.235756
vt 0.142111 0.150967
vt 0.103929 0.117140
vt 0.129434 0.046564
vt 0.205099 0.001992
vt 0.368897 0.186881
vt 0.315529 0.256622
vt 0.213415 0.231453
vt 0.242393 0.273434
vt 0.130065 0.173920
vt 0.080536 0.161712
vt 0.070321 0.087367
vt 0.116606 0.012737
vt 0.347563 0.273434
vt 0.267899 0.310386
vt 0.189178 0.240645
vt 0.195326 0.291284
vt 0.130065 0.199842
vt 0.080536 0.212050
vt 0.036941 0.150967
vt 0.043242 0.063376
vt 0.288450 0.340159
vt 0.200738 0.335856
vt 0.163445 0.237520
vt 0.145356 0.285217
vt 0.142111 0.222795
vt 0.103929 0.256622
vt 0.036941 0.222795
vt 0.001815 0.142309
vt 0.205099 0.371770
vt 0.129434 0.327198
vt 0.070321 0.286395
vt 0.001815 0.231453
vt 0.116605 0.361025
vt 0.043242 0.310386
vt 0.703765 0.095116
vt 0.703765 0.178466
vt 0.655458 0.175410
vt 0.655458 0.080713
vt 0.703765 0.266960
vt 0.655458 0.275951
vt 0.602487 0.173837
vt 0.602487 0.073296
vt 0.703765 0.036002
vt 0.655458 0.013553
vt 0.703765 0.340324
vt 0.655458 0.359301
vt 0.602487 0.280580
vt 0.547930 0.173837
vt 0.547930 0.073296
vt 0.602487 0.001992
vt 0.602487 0.369074
vt 0.547930 0.280580
vt 0.494959 0.175410
vt 0.494959 0.080713
vt 0.547930 0.001992
vt 0.547930 0.369074
vt 0.494959 0.275951
vt 0.446651 0.178466
vt 0.446651 0.095116
vt 0.494959 0.013553
vt 0.494959 0.359301
vt 0.446651 0.266960
vt 0.405815 0.182827
vt 0.405815 0.115667
vt 0.446651 0.036002
vt 0.446651 0.340324
vt 0.405815 0.254131
vt 0.374823 0.188239
vt 0.374823 0.141172
vt 0.405815 0.068036
vt 0.405815 0.313244
vt 0.374823 0.238210
vt 0.580188 0.706272
vt 0.580188 0.627340
vt 0.628495 0.633407
vt 0.628495 0.723085
vt 0.580188 0.538196
vt 0.628495 0.532129
vt 0.681467 0.636532
vt 0.681467 0.731743
vt 0.580188 0.459263
vt 0.628495 0.442451
vt 0.681467 0.529004
vt 0.736023 0.636532
vt 0.736023 0.731743
vt 0.580188 0.408624
vt 0.628495 0.384918
vt 0.681467 0.433793
vt 0.736023 0.529004
vt 0.788994 0.633407
vt 0.788994 0.723085
vt 0.681467 0.372710
vt 0.736023 0.433793
vt 0.788994 0.532129
vt 0.837302 0.627340
vt 0.837302 0.706272
vt 0.736023 0.372710
vt 0.788994 0.442451
vt 0.837302 0.538196
vt 0.878138 0.618682
vt 0.878138 0.682282
vt 0.788994 0.384918
vt 0.837302 0.459263
vt 0.878138 0.546854
vt 0.909130 0.607937
vt 0.909130 0.652509
vt 0.837302 0.408624
vt 0.878138 0.483254
vt 0.909130 0.557599
vt 0.909130 0.513027
vt 0.245657 0.640374
vt 0.245657 0.551880
vt 0.293965 0.548824
vt 0.293965 0.649364
vt 0.245657 0.468529
vt 0.293965 0.454127
vt 0.346936 0.547250
vt 0.346936 0.653994
vt 0.245657 0.409416
vt 0.293965 0.386967
vt 0.346936 0.446710
vt 0.401492 0.547250
vt 0.401492 0.653994
vt 0.346936 0.375406
vt 0.401492 0.446710
vt 0.454464 0.548824
vt 0.454464 0.649364
vt 0.401492 0.375406
vt 0.454464 0.454127
vt 0.502771 0.551880
vt 0.502771 0.640374
vt 0.454464 0.386967
vt 0.502771 0.468529
vt 0.543607 0.556241
vt 0.543607 0.627545
vt 0.502771 0.409416
vt 0.543607 0.489081
vt 0.574599 0.561653
vt 0.574599 0.611624
vt 0.502771 0.713738
vt 0.543607 0.686658
vt 0.543607 0.441450
vt 0.574599 0.514586
vt 0.049112 0.375406
vt 0.135665 0.375406
vt 0.135665 0.423713
vt 0.037329 0.423713
vt 0.222218 0.375406
vt 0.234001 0.423713
vt 0.135665 0.476685
vt 0.031262 0.476685
vt 0.240068 0.476685
vt 0.135665 0.531241
vt 0.031262 0.531241
vt 0.240068 0.531241
vt 0.135665 0.584212
vt 0.037329 0.584212
vt 0.234001 0.584212
vt 0.135665 0.632520
vt 0.049112 0.632520
vt 0.222218 0.632520
vt 0.135665 0.673356
vt 0.065924 0.673356
vt 0.205406 0.673356
vt 0.135665 0.704348
vt 0.086790 0.704348
vt 0.184540 0.704348
vt 0.247023 0.927431
vt 0.199392 0.981195
vt 0.173887 0.944244
vt 0.207267 0.906566
vt 0.144909 0.902263
vt 0.162098 0.882860
vt 0.126820 0.962094
vt 0.120671 0.911455
vt 0.114143 0.857691
vt 0.219313 0.857691
vt 0.168302 0.857691
vt 0.076849 0.956027
vt 0.094938 0.908330
vt 0.207267 0.808816
vt 0.162098 0.832522
vt 0.035422 0.927432
vt 0.073605 0.893605
vt 0.173887 0.771138
vt 0.144909 0.813119
vt 0.060928 0.998008
vt 0.001815 0.957205
vt 0.012029 0.882860
vt 0.061558 0.870652
vt 0.199392 0.734186
vt 0.247023 0.787950
vt 0.126820 0.753288
vt 0.120671 0.803927
vt 0.012029 0.832522
vt 0.061558 0.844730
vt 0.076849 0.759355
vt 0.094938 0.807052
vt 0.035422 0.787950
vt 0.073605 0.821777
vt 0.001815 0.758177
vt 0.060928 0.717374
vn 0.242014 -0.963342 -0.115767
vn 0.160493 -0.963342 -0.214977
vn 0.438883 -0.872099 -0.216391
vn 0.288050 -0.872099 -0.395564
vn 0.042205 -0.963342 -0.264938
vn 0.071228 -0.872099 -0.484118
vn -0.085752 -0.963342 -0.254204
vn -0.161912 -0.872099 -0.461766
vn -0.194064 -0.963342 -0.185236
vn -0.357959 -0.872099 -0.333629
vn -0.257918 -0.963342 -0.073832
vn -0.472002 -0.872099 -0.129062
vn -0.262687 -0.963342 0.054486
vn -0.477916 -0.872099 0.105072
vn -0.207277 -0.963342 0.170321
vn -0.374344 -0.872099 0.315135
vn -0.104382 -0.963342 0.247138
vn -0.185015 -0.872099 0.453004
vn 0.022425 -0.963342 0.267339
vn 0.046699 -0.872099 0.487096
vn 0.144095 -0.963342 0.226295
vn 0.267715 -0.872099 0.409600
vn 0.232755 -0.963342 0.133410
vn 0.427400 -0.872099 0.238269
vn 0.268093 -0.963342 0.009963
vn 0.489174 -0.872099 0.012354
vn 0.607957 -0.733072 -0.304950
vn 0.396602 -0.733072 -0.552551
vn 0.094390 -0.733072 -0.673570
vn -0.229445 -0.733072 -0.640282
vn -0.500718 -0.733072 -0.460313
vn -0.657282 -0.733072 -0.174892
vn -0.663270 -0.733072 0.150595
vn -0.517312 -0.733072 0.441582
vn -0.252843 -0.733072 0.631408
vn 0.069549 -0.733072 0.676586
vn 0.376008 -0.733072 0.566767
vn 0.596328 -0.733072 0.327107
vn 0.680037 -0.733072 0.012512
vn 0.741905 -0.554068 -0.377606
vn 0.481442 -0.554068 -0.679134
vn 0.110686 -0.554068 -0.825080
vn -0.285426 -0.554068 -0.782011
vn -0.616151 -0.554068 -0.559792
vn -0.805723 -0.554068 -0.209332
vn -0.810713 -0.554068 0.189084
vn -0.629979 -0.554068 0.544183
vn -0.304924 -0.554068 0.774616
vn 0.089985 -0.554068 0.827594
vn 0.464280 -0.554068 0.690980
vn 0.732214 -0.554068 0.396071
vn 0.832406 -0.554068 0.010427
vn 0.834264 -0.344932 -0.430146
vn 0.538806 -0.344932 -0.768577
vn 0.119913 -0.344932 -0.930937
vn -0.326450 -0.344932 -0.880030
vn -0.698027 -0.344932 -0.627519
vn -0.909695 -0.344931 -0.231251
vn -0.912963 -0.344932 0.217994
vn -0.707082 -0.344932 0.617299
vn -0.339217 -0.344932 0.875188
vn 0.106359 -0.344932 0.932582
vn 0.527569 -0.344932 0.776333
vn 0.827919 -0.344932 0.442235
vn 0.938603 -0.344932 0.006827
vn 0.880463 -0.117090 -0.459428
vn 0.566105 -0.117090 -0.815975
vn 0.122059 -0.117090 -0.985592
vn -0.349950 -0.117090 -0.929422
vn -0.741789 -0.117090 -0.660332
vn -0.963693 -0.117090 -0.239969
vn -0.964827 -0.117090 0.235369
vn -0.744931 -0.117090 0.656787
vn -0.354379 -0.117090 0.927742
vn 0.117356 -0.117090 0.986163
vn 0.562206 -0.117090 0.818666
vn 0.878262 -0.117090 0.463622
vn 0.993119 -0.117090 0.002369
vn 0.878262 0.117090 -0.463622
vn 0.562207 0.117090 -0.818666
vn 0.117356 0.117090 -0.986163
vn -0.354379 0.117090 -0.927742
vn -0.744930 0.117090 -0.656787
vn -0.964827 0.117090 -0.235369
vn -0.963693 0.117090 0.239968
vn -0.741789 0.117090 0.660332
vn -0.349950 0.117090 0.929422
vn 0.122058 0.117090 0.985592
vn 0.566105 0.117090 0.815975
vn 0.880463 0.117090 0.459428
vn 0.993119 0.117090 -0.002368
vn 0.827919 0.344932 -0.442235
vn 0.527569 0.344931 -0.776333
vn 0.106359 0.344932 -0.932582
vn -0.339216 0.344932 -0.875188
vn -0.707081 0.344932 -0.617299
vn -0.912963 0.344931 -0.217994
vn -0.909695 0.344932 0.231251
vn -0.698027 0.344932 0.627519
vn -0.326450 0.344932 0.880030
vn 0.119913 0.344932 0.930937
vn 0.538806 0.344932 0.768577
vn 0.834264 0.344932 0.430146
vn 0.938603 0.344932 -0.006827
vn 0.732214 0.554068 -0.396071
vn 0.464280 0.554068 -0.690980
vn 0.089985 0.554068 -0.827594
vn -0.304924 0.554068 -0.774616
vn -0.629979 0.554068 -0.544183
vn -0.810713 0.554068 -0.189084
vn -0.805723 0.554068 0.209331
vn -0.616151 0.554068 0.559792
vn -0.285426 0.554068 0.782011
vn 0.110686 0.554068 0.825080
vn 0.481441 0.554068 0.679134
vn 0.741905 0.554068 0.377606
vn 0.832406 0.554068 -0.010426
vn 0.596328 0.733072 -0.327107
vn 0.376008 0.733072 -0.566766
vn 0.069549 0.733072 -0.676586
vn -0.252843 0.733072 -0.631408
vn -0.517311 0.733072 -0.441583
vn -0.663270 0.733072 -0.150595
vn -0.657282 0.733071 0.174892
vn -0.500718 0.733072 0.460313
vn -0.229446 0.733072 0.640282
vn 0.094390 0.733072 0.673570
vn 0.396602 0.733072 0.552552
vn 0.607957 0.733072 0.304950
vn 0.680036 0.733072 -0.012512
vn 0.427400 0.872099 -0.238269
vn 0.267715 0.872099 -0.409600
vn 0.046699 0.872099 -0.487096
vn -0.185015 0.872099 -0.453004
vn -0.374344 0.872099 -0.315135
vn -0.477916 0.872099 -0.105072
vn -0.472003 0.872099 0.129062
vn -0.357959 0.872099 0.333629
vn -0.161912 0.872099 0.461766
vn 0.071227 0.872099 0.484118
vn 0.288050 0.872099 0.395564
vn 0.438883 0.872099 0.216391
vn 0.489173 0.872099 -0.012354
vn 0.232755 0.963342 -0.133410
vn 0.144095 0.963342 -0.226295
vn 0.022425 0.963342 -0.267339
vn -0.104382 0.963342 -0.247138
vn -0.207277 0.963342 -0.170321
vn -0.262687 0.963342 -0.054486
vn -0.257918 0.963342 0.073832
vn -0.194064 0.963342 0.185236
vn -0.085752 0.963342 0.254204
vn 0.042205 0.963342 0.264937
vn 0.160493 0.963342 0.214977
vn 0.242014 0.963342 0.115767
vn 0.268093 0.963342 -0.009963
vn -0.000000 -1.000000 -0.000000
vn -0.000000 1.000000 0.000000
s 1
g pSphere2
usemtl initialShadingGroup
f 4/4/4 5/5/5 17/7/6
f 17/7/6 5/5/5 18/6/7
f 5/5/5 6/9/8 18/6/7
f 18/6/7 6/9/8 19/10/9
f 6/9/8 7/15/10 19/10/9
f 19/10/9 7/15/10 20/16/11
f 7/15/10 8/23/12 20/16/11
f 20/16/11 8/23/12 21/24/13
f 8/23/12 9/31/14 21/24/13
f 21/24/13 9/31/14 22/32/15
f 9/31/14 10/39/16 22/32/15
f 22/32/15 10/39/16 23/40/17
f 10/39/16 11/47/18 23/40/17
f 23/40/17 11/47/18 24/48/19
f 11/47/18 12/45/20 24/48/19
f 24/48/19 12/45/20 25/46/21
f 12/45/20 13/37/22 25/46/21
f 25/46/21 13/37/22 26/38/23
f 13/37/22 14/29/24 26/38/23
f 26/38/23 14/29/24 27/30/25
f 14/29/24 15/21/26 27/30/25
f 27/30/25 15/21/26 28/22/27
f 15/21/26 16/13/28 28/22/27
f 28/22/27 16/13/28 29/14/29
f 16/13/28 4/4/4 29/14/29
f 29/14/29 4/4/4 17/7/6
f 17/7/6 18/6/7 30/12/30
f 30/12/30 18/6/7 31/11/31
f 18/6/7 19/10/9 31/11/31
f 31/11/31 19/10/9 32/17/32
f 19/10/9 20/16/11 32/17/32
f 32/17/32 20/16/11 33/25/33
f 20/16/11 21/24/13 33/25/33
f 33/25/33 21/24/13 34/33/34
f 21/24/13 22/32/15 34/33/34
f 34/33/34 22/32/15 35/41/35
f 22/32/15 23/40/17 35/41/35
f 35/41/35 23/40/17 36/49/36
f 23/40/17 24/48/19 36/49/36
f 36/49/36 24/48/19 37/53/37
f 24/48/19 25/46/21 37/53/37
f 37/53/37 25/46/21 38/52/38
f 25/46/21 26/38/23 38/52/38
f 38/52/38 26/38/23 39/44/39
f 26/38/23 27/30/25 39/44/39
f 39/44/39 27/30/25 40/36/40
f 27/30/25 28/22/27 40/36/40
f 40/36/40 28/22/27 41/28/41
f 28/22/27 29/14/29 41/28/41
f 41/28/41 29/14/29 42/20/42
f 29/14/29 17/7/6 42/20/42
f 42/20/42 17/7/6 30/12/30
f 30/12/30 31/11/31 43/19/43
f 43/19/43 31/11/31 44/18/44
f 31/11/31 32/17/32 44/18/44
f 44/18/44 32/17/32 45/26/45
f 32/17/32 33/25/33 45/26/45
f 45/26/45 33/25/33 46/34/46
f 33/25/33 34/33/34 46/34/46
f 46/34/46 34/33/34 47/42/47
f 34/33/34 35/41/35 47/42/47
f 47/42/47 35/41/35 48/50/48
f 35/41/35 36/49/36 48/50/48
f 48/50/48 36/49/36 49/54/49
f 36/49/36 37/53/37 49/54/49
f 49/54/49 37/53/37 50/56/50
f 37/53/37 38/52/38 50/56/50
f 50/56/50 38/52/38 51/55/51
f 38/52/38 39/44/39 51/55/51
f 51/55/51 39/44/39 52/51/52
f 39/44/39 40/36/40 52/51/52
f 52/51/52 40/36/40 53/43/53
f 40/36/40 41/28/41 53/43/53
f 53/43/53 41/28/41 54/35/54
f 41/28/41 42/20/42 54/35/54
f 54/35/54 42/20/42 55/27/55
f 42/20/42 30/12/30 55/27/55
f 55/27/55 30/12/30 43/19/43
f 43/65/43 44/57/44 56/66/56
f 56/66/56 44/57/44 57/60/57
f 44/57/44 45/58/45 57/60/57
f 57/60/57 45/58/45 58/59/58
f 45/58/45 46/61/46 58/59/58
f 58/59/58 46/61/46 59/62/59
f 46/61/46 47/67/47 59/62/59
f 59/62/59 47/67/47 60/68/60
f 47/95/47 48/96/48 60/98/60
f 60/98/60 48/96/48 61/97/61
f 48/96/48 49/99/49 61/97/61
f 61/97/61 49/99/49 62/100/62
f 49/99/49 50/103/50 62/100/62
f 62/100/62 50/103/50 63/104/63
f 50/103/50 51/108/51 63/104/63
f 63/104/63 51/108/51 64/109/64
f 51/133/51 52/134/52 64/136/64
f 64/136/64 52/134/52 65/135/65
f 52/134/52 53/137/53 65/135/65
f 65/135/65 53/137/53 66/138/66
f 53/137/53 54/141/54 66/138/66
f 66/138/66 54/141/54 67/142/67
f 54/166/54 55/167/55 67/169/67
f 67/169/67 55/167/55 68/168/68
f 55/167/55 43/170/43 68/168/68
f 68/168/68 43/170/43 56/171/56
f 56/66/56 57/60/57 69/72/69
f 69/72/69 57/60/57 70/64/70
f 57/60/57 58/59/58 70/64/70
f 70/64/70 58/59/58 71/63/71
f 58/59/58 59/62/59 71/63/71
f 71/63/71 59/62/59 72/69/72
f 59/62/59 60/68/60 72/69/72
f 72/69/72 60/68/60 73/73/73
f 60/98/60 61/97/61 73/102/73
f 73/102/73 61/97/61 74/101/74
f 61/97/61 62/100/62 74/101/74
f 74/101/74 62/100/62 75/105/75
f 62/100/62 63/104/63 75/105/75
f 75/105/75 63/104/63 76/110/76
f 63/104/63 64/109/64 76/110/76
f 76/110/76 64/109/64 77/114/77
f 64/136/64 65/135/65 77/140/77
f 77/140/77 65/135/65 78/139/78
f 65/135/65 66/138/66 78/139/78
f 78/139/78 66/138/66 79/143/79
f 66/138/66 67/142/67 79/143/79
f 79/143/79 67/142/67 80/146/80
f 67/169/67 68/168/68 80/173/80
f 80/173/80 68/168/68 81/172/81
f 68/168/68 56/171/56 81/172/81
f 81/172/81 56/171/56 69/174/69
f 69/72/69 70/64/70 82/77/82
f 82/77/82 70/64/70 83/71/83
f 70/64/70 71/63/71 83/71/83
f 83/71/83 71/63/71 84/70/84
f 71/63/71 72/69/72 84/70/84
f 84/70/84 72/69/72 85/74/85
f 72/69/72 73/73/73 85/74/85
f 85/74/85 73/73/73 86/78/86
f 73/102/73 74/101/74 86/107/86
f 86/107/86 74/101/74 87/106/87
f 74/101/74 75/105/75 87/106/87
f 87/106/87 75/105/75 88/111/88
f 75/105/75 76/110/76 88/111/88
f 88/111/88 76/110/76 89/115/89
f 76/110/76 77/114/77 89/115/89
f 89/115/89 77/114/77 90/119/90
f 77/140/77 78/139/78 90/145/90
f 90/145/90 78/139/78 91/144/91
f 78/139/78 79/143/79 91/144/91
f 91/144/91 79/143/79 92/147/92
f 79/143/79 80/146/80 92/147/92
f 92/147/92 80/146/80 93/150/93
f 80/173/80 81/172/81 93/176/93
f 93/176/93 81/172/81 94/175/94
f 81/172/81 69/174/69 94/175/94
f 94/175/94 69/174/69 82/177/82
f 82/77/82 83/71/83 95/82/95
f 95/82/95 83/71/83 96/76/96
f 83/71/83 84/70/84 96/76/96
f 96/76/96 84/70/84 97/75/97
f 84/70/84 85/74/85 97/75/97
f 97/75/97 85/74/85 98/79/98
f 85/74/85 86/78/86 98/79/98
f 98/79/98 86/78/86 99/83/99
f 86/107/86 87/106/87 99/113/99
f 99/113/99 87/106/87 100/112/100
f 87/106/87 88/111/88 100/112/100
f 100/112/100 88/111/88 101/116/101
f 88/111/88 89/115/89 101/116/101
f 101/116/101 89/115/89 102/120/102
f 89/115/89 90/119/90 102/120/102
f 102/120/102 90/119/90 103/124/103
f 90/145/90 91/144/91 103/149/103
f 103/149/103 91/144/91 104/148/104
f 91/144/91 92/147/92 104/148/104
f 104/148/104 92/147/92 105/151/105
f 92/147/92 93/150/93 105/151/105
f 105/151/105 93/150/93 106/154/106
f 93/176/93 94/175/94 106/179/106
f 106/179/106 94/175/94 107/178/107
f 94/175/94 82/177/82 107/178/107
f 107/178/107 82/177/82 95/180/95
f 95/82/95 96/76/96 108/87/108
f 108/87/108 96/76/96 109/81/109
f 96/76/96 97/75/97 109/81/109
f 109/81/109 97/75/97 110/80/110
f 97/75/97 98/79/98 110/80/110
f 110/80/110 98/79/98 111/84/111
f 98/79/98 99/83/99 111/84/111
f 111/84/111 99/83/99 112/88/112
f 99/113/99 100/112/100 112/118/112
f 112/118/112 100/112/100 113/117/113
f 100/112/100 101/116/101 113/117/113
f 113/117/113 101/116/101 114/121/114
f 101/116/101 102/120/102 114/121/114
f 114/121/114 102/120/102 115/125/115
f 102/120/102 103/124/103 115/125/115
f 115/125/115 103/124/103 116/129/116
f 103/149/103 104/148/104 116/153/116
f 116/153/116 104/148/104 117/152/117
f 104/148/104 105/151/105 117/152/117
f 117/152/117 105/151/105 118/155/118
f 105/151/105 106/154/106 118/155/118
f 118/155/118 106/154/106 119/158/119
f 106/179/106 107/178/107 119/182/119
f 119/182/119 107/178/107 120/181/120
f 107/178/107 95/180/95 120/181/120
f 120/181/120 95/180/95 108/183/108
f 108/87/108 109/81/109 121/92/121
f 121/92/121 109/81/109 122/86/122
f 109/81/109 110/80/110 122/86/122
f 122/86/122 110/80/110 123/85/123
f 110/80/110 111/84/111 123/85/123
f 123/85/123 111/84/111 124/89/124
f 111/84/111 112/88/112 124/89/124
f 124/89/124 112/88/112 125/93/125
f 112/118/112 113/117/113 125/123/125
f 125/123/125 113/117/113 126/122/126
f 113/117/113 114/121/114 126/122/126
f 126/122/126 114/121/114 127/126/127
f 114/121/114 115/125/115 127/126/127
f 127/126/127 115/125/115 128/130/128
f 115/162/115 116/153/116 128/163/128
f 128/163/128 116/153/116 129/157/129
f 116/153/116 117/152/117 129/157/129
f 129/157/129 117/152/117 130/156/130
f 117/152/117 118/155/118 130/156/130
f 130/156/130 118/155/118 131/159/131
f 118/155/118 119/158/119 131/159/131
f 131/159/131 119/158/119 132/164/132
f 119/182/119 120/181/120 132/185/132
f 132/185/132 120/181/120 133/184/133
f 120/181/120 108/183/108 133/184/133
f 133/184/133 108/183/108 121/186/121
f 121/190/121 122/191/122 134/193/134
f 134/193/134 122/191/122 135/192/135
f 122/86/122 123/85/123 135/91/135
f 135/91/135 123/85/123 136/90/136
f 123/85/123 124/89/124 136/90/136
f 136/90/136 124/89/124 137/94/137
f 124/209/124 125/210/125 137/201/137
f 137/201/137 125/210/125 138/205/138
f 125/123/125 126/122/126 138/128/138
f 138/128/138 126/122/126 139/127/139
f 126/122/126 127/126/127 139/127/139
f 139/127/139 127/126/127 140/131/140
f 127/126/127 128/130/128 140/131/140
f 140/131/140 128/130/128 141/132/141
f 128/223/128 129/224/129 141/221/141
f 141/221/141 129/224/129 142/219/142
f 129/157/129 130/156/130 142/161/142
f 142/161/142 130/156/130 143/160/143
f 130/156/130 131/159/131 143/160/143
f 143/160/143 131/159/131 144/165/144
f 131/213/131 132/214/132 144/207/144
f 144/207/144 132/214/132 145/203/145
f 132/185/132 133/184/133 145/188/145
f 145/188/145 133/184/133 146/187/146
f 133/184/133 121/186/121 146/187/146
f 146/187/146 121/186/121 134/189/134
f 134/193/134 135/192/135 147/195/147
f 147/195/147 135/192/135 148/194/148
f 135/192/135 136/196/136 148/194/148
f 148/194/148 136/196/136 149/197/149
f 136/196/136 137/201/137 149/197/149
f 149/197/149 137/201/137 150/202/150
f 137/201/137 138/205/138 150/202/150
f 150/202/150 138/205/138 151/206/151
f 138/205/138 139/211/139 151/206/151
f 151/206/151 139/211/139 152/212/152
f 139/211/139 140/217/140 152/212/152
f 152/212/152 140/217/140 153/218/153
f 140/217/140 141/221/141 153/218/153
f 153/218/153 141/221/141 154/222/154
f 141/221/141 142/219/142 154/222/154
f 154/222/154 142/219/142 155/220/155
f 142/219/142 143/215/143 155/220/155
f 155/220/155 143/215/143 156/216/156
f 143/215/143 144/207/144 156/216/156
f 156/216/156 144/207/144 157/208/157
f 144/207/144 145/203/145 157/208/157
f 157/208/157 145/203/145 158/204/158
f 145/203/145 146/199/146 158/204/158
f 158/204/158 146/199/146 159/200/159
f 146/199/146 134/193/134 159/200/159
f 159/200/159 134/193/134 147/195/147
f 5/5/5 4/4/4 160/8/160
f 6/9/8 5/5/5 160/8/160
f 7/15/10 6/9/8 160/8/160
f 8/23/12 7/15/10 160/8/160
f 9/31/14 8/23/12 160/8/160
f 10/39/16 9/31/14 160/8/160
f 11/47/18 10/39/16 160/8/160
f 12/45/20 11/47/18 160/8/160
f 13/37/22 12/45/20 160/8/160
f 14/29/24 13/37/22 160/8/160
f 15/21/26 14/29/24 160/8/160
f 16/13/28 15/21/26 160/8/160
f 4/4/4 16/13/28 160/8/160
f 147/195/147 148/194/148 161/198/161
f 148/194/148 149/197/149 161/198/161
f 149/197/149 150/202/150 161/198/161
f 150/202/150 151/206/151 161/198/161
f 151/206/151 152/212/152 161/198/161
f 152/212/152 153/218/153 161/198/161
f 153/218/153 154/222/154 161/198/161
f 154/222/154 155/220/155 161/198/161
f 155/220/155 156/216/156 161/198/161
f 156/216/156 157/208/157 161/198/161
f 157/208/157 158/204/158 161/198/161
f 158/204/158 159/200/159 161/198/161
f 159/200/159 147/195/147 161/198/161
